# xmcd
#
# Track frame offsets: 
#        150
#        23143
#        46018
#        60746
#        77189
#        93429
#        109960
#        128072
#        143514
#        172883
#        189468
#        214817
#        236266
#        253614
#
# Disc length: 3598 seconds
#
# Revision: 0
# Processed by: cddbd v1.5.1PL2 Copyright (c) Steve Scherf et al.
# Submitted via: ExactAudioCopy v0.95b3
#
DISCID=b30e0c0e
DTITLE=R.L. Burnside - Wish I Was in Heaven Sitting Down
DYEAR=2000
DGENRE=Blues
TTITLE0=Hard Time Killing Floor
TTITLE1=Got Messed Up
TTITLE2=Miss Maybelle
TTITLE3=Wish I Was In Heaven Sitting Down
TTITLE4=Too Many Ups
TTITLE5=Nothin' Man
TTITLE6=See What My Buddy Done
TTITLE7=My Eyes Keep Me In Trouble
TTITLE8=Bad Luck City
TTITLE9=Chain Of Fools
TTITLE10=R.L.'s Story
TTITLE11=Black Mattie
TTITLE12=Pucker Up Buttercup
TTITLE13=Laugh To Keep From Cryin'
EXTD=
EXTT0=
EXTT1=
EXTT2=
EXTT3=
EXTT4=
EXTT5=
EXTT6=
EXTT7=
EXTT8=
EXTT9=
EXTT10=
EXTT11=
EXTT12=
EXTT13=
PLAYORDER=
